<svg viewBox="0 0 120 40" xmlns="http://www.w3.org/2000/svg">
  <g fill="white">
    <!-- K -->
    <path d="M8 6h3v10.5l6-6.5h4l-6.5 7L21 24h-4l-6-9.5V24H8V6z"/>
    <!-- L -->
    <path d="M28 6h3v15h8v3h-11V6z"/>
    <!-- Y -->
    <path d="M45 6h3l4 7 4-7h3l-6 10v8h-3v-8L45 6z"/>
    <!-- R -->
    <path d="M65 6h8c2 0 3.5 1.5 3.5 3.5S75 13 73 13h-5v11h-3V6zm3 3v4h5c.5 0 1-.5 1-1s-.5-1-1-1h-5z"/>
    <!-- A -->
    <path d="M82 6h3l6 18h-3l-1-3h-7l-1 3h-3L82 6zm0 6l-2 6h4l-2-6z"/>
  </g>
</svg>